<svg id="Layer_1" data-name="Layer 1" xmlns="http://www.w3.org/2000/svg" viewBox="0 0 10.00001 6.66667"><defs><style>.cls-1{fill:#09ba61;}</style></defs><title>cash</title><path class="cls-1" d="M9.35417.66667H1.64582A1.14666,1.14666,0,0,0,.5,1.81249v4.375A1.14666,1.14666,0,0,0,1.64582,7.33333H9.35417A1.14668,1.14668,0,0,0,10.5,6.18749v-4.375A1.14668,1.14668,0,0,0,9.35417.66667Zm-6.25,1.875H2.06249a.3125.3125,0,0,1,0-.625H3.10416a.3125.3125,0,0,1,0,.625Zm3.75.41667a.3125.3125,0,0,1,0,.625H6.36582a1.35291,1.35291,0,0,1-1.20958.93583l1.4575.99375a.31256.31256,0,1,1-.3525.51625L3.96957,4.46666a.31333.31333,0,0,1,.17625-.57083h.9375A.72734.72734,0,0,0,5.68,3.58333H4.14582a.3125.3125,0,0,1,0-.625h1.6325a.7275.7275,0,0,0-.695-.52084h-.9375a.3125.3125,0,0,1,0-.625H6.85416a.3125.3125,0,0,1,0,.625H6.22082a1.34455,1.34455,0,0,1,.19542.52084Zm2.08333,3.125H7.89582a.3125.3125,0,0,1,0-.625H8.93749a.3125.3125,0,0,1,0,.625Z" transform="translate(-0.5 -0.66667)"/></svg>