<svg id="Layer_1" data-name="Layer 1" xmlns="http://www.w3.org/2000/svg" xmlns:xlink="http://www.w3.org/1999/xlink" viewBox="0 0 11 8.00003"><defs><style>.cls-1{fill:none;}.cls-2{clip-path:url(#clip-path);}.cls-3{fill:#007ee5;}</style><clipPath id="clip-path" transform="translate(-1 -0.5326)"><rect class="cls-1" x="0.5" y="-1.46739" width="12" height="12"/></clipPath></defs><title>Instant-Delivery</title><g class="cls-2"><path class="cls-3" d="M10.25,2.5326H9v-1a1.00294,1.00294,0,0,0-1-1H2a1.00294,1.00294,0,0,0-1,1v4.5a1.00294,1.00294,0,0,0,1,1,1.5,1.5,0,1,0,3,0H8a1.5,1.5,0,1,0,3,0h.5a.50147.50147,0,0,0,.5-.5V4.8676a1.006,1.006,0,0,0-.2-.6l-1.15-1.535A.50686.50686,0,0,0,10.25,2.5326Zm-6.75,5a.5.5,0,1,1,.5-.5A.50147.50147,0,0,1,3.5,7.5326Zm6.75-4.25.98,1.25H9v-1.25Zm-.75,4.25a.5.5,0,1,1,.5-.5A.50147.50147,0,0,1,9.5,7.5326Z" transform="translate(-1 -0.5326)"/></g></svg>