<?xml version="1.0" encoding="utf-8"?>
<!-- Generator: Adobe Illustrator 23.0.5, SVG Export Plug-In . SVG Version: 6.00 Build 0)  -->
<svg version="1.1" id="Layer_1" xmlns="http://www.w3.org/2000/svg" xmlns:xlink="http://www.w3.org/1999/xlink" x="0px" y="0px"
	 viewBox="0 0 13 13" style="enable-background:new 0 0 13 13;" xml:space="preserve">
<style type="text/css">
	.st0{clip-path:url(#SVGID_2_);}
	.st1{fill:#F47805;}
</style>
<g>
	<defs>
		<rect id="SVGID_1_" x="0.4" y="0.1" width="12" height="12"/>
	</defs>
	<clipPath id="SVGID_2_">
		<use xlink:href="#SVGID_1_"  style="overflow:visible;"/>
	</clipPath>
	<g class="st0">
		<path class="st1" d="M10.5,4c0-0.2-0.3-0.4-0.5-0.4H2.8C2.6,3.6,2.4,3.8,2.3,4L1.9,6.1v0.5c0,0.3,0.2,0.5,0.5,0.5v2.5
			c0,0.3,0.2,0.5,0.5,0.5h4c0.3,0,0.5-0.2,0.5-0.5V7.1h2v2.5c0,0.3,0.2,0.5,0.5,0.5c0.3,0,0.5-0.2,0.5-0.5V7.1
			c0.3,0,0.5-0.2,0.5-0.5V6.1L10.5,4z M6.4,9.1h-3v-2h3V9.1z M2.9,3.1h7c0.3,0,0.5-0.2,0.5-0.5s-0.2-0.5-0.5-0.5h-7
			c-0.3,0-0.5,0.2-0.5,0.5S2.6,3.1,2.9,3.1z"/>
	</g>
</g>
</svg>
