<svg width="24" height="24" viewBox="0 0 24 24" fill="none" xmlns="http://www.w3.org/2000/svg">
<path fill-rule="evenodd" clip-rule="evenodd" d="M15.3589 7.35821L15.3617 7.4H7.86663L7.86941 7.35821C7.90141 6.89728 7.99052 6.2991 8.21017 5.71334C8.42915 5.12941 8.76707 4.58537 9.2819 4.18679C9.7884 3.79467 10.5215 3.5 11.6142 3.5C12.7069 3.5 13.44 3.79467 13.9465 4.18679C14.4613 4.58537 14.7992 5.12941 15.0182 5.71334C15.2378 6.2991 15.3269 6.89728 15.3589 7.35821ZM16.8553 7.25429C16.8588 7.30436 16.8617 7.35298 16.8642 7.4H18.0029C19.3606 7.4 20.4875 8.44923 20.5842 9.80346L20.9123 14.3966L21.2216 18.7278C21.3286 20.2258 20.1422 21.5 18.6404 21.5H4.58797C3.08614 21.5 1.89971 20.2258 2.00671 18.7278L2.31608 14.3966L2.64416 9.80346C2.74089 8.44923 3.86774 7.4 5.22542 7.4H6.36419C6.36662 7.35298 6.36953 7.30436 6.37301 7.25429C6.41131 6.70272 6.51909 5.9509 6.80568 5.18666C7.09296 4.42059 7.57066 3.61463 8.36364 3.00071C9.16496 2.38033 10.2319 2 11.6142 2C12.9965 2 14.0634 2.38033 14.8647 3.00071C15.6577 3.61463 16.1354 4.42059 16.4227 5.18666C16.7093 5.9509 16.817 6.70272 16.8553 7.25429ZM7.86172 8.08941C7.86174 8.08966 7.86174 8.08959 7.86171 8.08921L7.86172 8.08941ZM4.14035 9.91033C4.18101 9.34106 4.6547 8.9 5.22542 8.9H7.11418H16.1142H18.0029C18.5737 8.9 19.0473 9.34106 19.088 9.91033L19.3587 13.7H17.0142C16.6 13.7 16.2642 14.0358 16.2642 14.45C16.2642 14.8642 16.6 15.2 17.0142 15.2H19.4658L19.7255 18.8347C19.7704 19.4644 19.2717 20 18.6404 20H4.58797C3.95665 20 3.45792 19.4644 3.5029 18.8347L3.76252 15.2H6.21418C6.62839 15.2 6.96418 14.8642 6.96418 14.45C6.96418 14.0358 6.62839 13.7 6.21418 13.7H3.86966L4.14035 9.91033ZM14.4669 11.9329L14.6134 11.7131C14.6472 11.6625 14.6463 11.5961 14.6051 11.5513C14.08 10.9802 12.3471 10.2037 10.6285 10.8918C8.48082 11.7517 8.30966 13.9101 8.61989 15.196C9.26405 17.866 12.4205 17.866 14.9328 17.2046V14.3351C14.9328 14.2559 14.8685 14.1917 14.7893 14.1917H12.4937C12.4144 14.1917 12.3502 14.2559 12.3502 14.3351V14.6221C12.3502 14.7013 12.4144 14.7656 12.4937 14.7656H13.785V16.7742C12.2307 17.2241 10.0786 16.6502 9.7916 14.7656C9.40048 12.1967 11.3459 11.3222 12.3502 11.3222C13.097 11.3222 13.7157 11.5869 14.2601 11.9699C14.3275 12.0173 14.4212 12.0014 14.4669 11.9329Z" fill="#340C0C"/>
</svg>
