<?xml version="1.0" encoding="utf-8"?>
<!-- Generator: Adobe Illustrator 23.0.5, SVG Export Plug-In . SVG Version: 6.00 Build 0)  -->
<svg version="1.1" id="Layer_1" xmlns="http://www.w3.org/2000/svg" xmlns:xlink="http://www.w3.org/1999/xlink" x="0px" y="0px"
	 viewBox="0 0 27 33" style="enable-background:new 0 0 27 33;" xml:space="preserve">
<style type="text/css">
	.st0{fill:#0DB04B;}
	.st1{fill-rule:evenodd;clip-rule:evenodd;fill:#0DB04B;}
	.st2{fill:none;stroke:#0DB04B;stroke-width:1.5;stroke-linecap:round;stroke-linejoin:round;}
	.st3{fill:none;stroke:#FFFFFF;stroke-width:1.5;stroke-linecap:round;stroke-linejoin:round;}
</style>
<path class="st0" d="M8.2,29.8h10.1c0.8,0,1.4,0.6,1.4,1.4v0c0,0.8-0.6,1.4-1.4,1.4H8.2c-0.8,0-1.4-0.6-1.4-1.4v0
	C6.8,30.5,7.5,29.8,8.2,29.8z"/>
<path class="st1" d="M18.2,23.8h-9c-3.3,0-5.9-1.2-5.1-6l0.8-6.5c0.4-2.4,2-3.3,3.3-3.3h11c1.4,0,2.8,1,3.3,3.3l0.8,6.5
	C24,22,21.5,23.8,18.2,23.8z"/>
<path class="st2" d="M18.3,7.6c0-2.6-2.1-4.7-4.7-4.7l0,0c-1.2,0-2.4,0.5-3.3,1.4C9.5,5.2,9,6.4,9,7.6l0,0"/>
<path class="st3" d="M16.9,12.5L16.9,12.5"/>
<path class="st3" d="M10.6,12.5L10.6,12.5"/>
</svg>
