<svg width="27" height="29" viewBox="0 0 27 29" fill="none" xmlns="http://www.w3.org/2000/svg">
<path fill-rule="evenodd" clip-rule="evenodd" d="M18.2804 25.2361H9.23696C5.91507 25.2361 3.36663 23.9709 4.09051 18.8787L4.93338 11.9776C5.3796 9.43678 6.9166 8.46436 8.26519 8.46436H19.2919C20.6603 8.46436 22.1081 9.50997 22.6237 11.9776L23.4666 18.8787C24.0814 23.3958 21.6023 25.2361 18.2804 25.2361Z" stroke="#2F2F2F" stroke-width="1.5" stroke-linecap="round" stroke-linejoin="round"/>
<path d="M18.429 8.21392C18.429 5.48822 16.3335 3.27861 13.7486 3.27861V3.27861C12.5038 3.27305 11.3082 3.79056 10.4262 4.71671C9.54416 5.64287 9.04833 6.90136 9.04834 8.21392V8.21392" stroke="#2F2F2F" stroke-width="1.5" stroke-linecap="round" stroke-linejoin="round"/>
<path d="M16.9615 13.3709H16.9119" stroke="#2F2F2F" stroke-width="1.5" stroke-linecap="round" stroke-linejoin="round"/>
<path d="M10.6451 13.3709H10.5955" stroke="#2F2F2F" stroke-width="1.5" stroke-linecap="round" stroke-linejoin="round"/>
</svg>
