<svg width="24" height="24" viewBox="0 0 24 24" fill="none" xmlns="http://www.w3.org/2000/svg">
<path fill-rule="evenodd" clip-rule="evenodd" d="M4.58793 20.7499H18.6403C19.7069 20.7499 20.5495 19.845 20.4735 18.7811L20.2176 15.1981C20.2 15.1993 20.1823 15.2 20.1645 15.2H17.0145C16.6002 15.2 16.2645 14.8642 16.2645 14.45C16.2645 14.0357 16.6002 13.7 17.0145 13.7H20.1106L19.8361 9.8568C19.7674 8.89505 18.9671 8.1499 18.0029 8.1499H16.1141H7.11414H5.22539C4.26118 8.1499 3.46091 8.89505 3.39222 9.8568L3.11771 13.7H6.21445C6.62867 13.7 6.96445 14.0357 6.96445 14.45C6.96445 14.8642 6.62867 15.2 6.21445 15.2H3.06445C3.04638 15.2 3.02845 15.1993 3.0107 15.1981L2.75477 18.7811C2.67877 19.845 3.52136 20.7499 4.58793 20.7499ZM14.6131 11.713L14.4666 11.9328C14.4209 12.0014 14.3271 12.0172 14.2598 11.9698C13.7154 11.5869 13.0967 11.3221 12.3499 11.3221C11.3456 11.3221 9.40015 12.1967 9.79127 14.7655C10.0782 16.6502 12.2303 17.2241 13.7846 16.7742V14.7655H12.4933C12.4141 14.7655 12.3499 14.7013 12.3499 14.6221V14.3351C12.3499 14.2559 12.4141 14.1916 12.4933 14.1916H14.789C14.8682 14.1916 14.9324 14.2559 14.9324 14.3351V17.2046C12.4202 17.866 9.26371 17.866 8.61955 15.196C8.30933 13.9101 8.48049 11.7517 10.6282 10.8918C12.3468 10.2037 14.0797 10.9802 14.6048 11.5513C14.6459 11.5961 14.6468 11.6624 14.6131 11.713Z" fill="#340C0C"/>
<path d="M11.5202 4C6.57024 4 7.01001 9.10499 7.01001 9.10499H16.01C16.01 9.10499 16.4702 4 11.5202 4Z" stroke="#340C0C" stroke-width="1.5" stroke-linecap="round"/>
</svg>
