<?xml version="1.0" encoding="utf-8"?>
<!-- Generator: Adobe Illustrator 23.0.5, SVG Export Plug-In . SVG Version: 6.00 Build 0)  -->
<svg version="1.1" id="Layer_1" xmlns="http://www.w3.org/2000/svg" xmlns:xlink="http://www.w3.org/1999/xlink" x="0px" y="0px"
	 viewBox="0 0 20 30" style="enable-background:new 0 0 20 30;" xml:space="preserve">
<style type="text/css">
	.st0{fill:#0DB04B;}
</style>
<path class="st0" d="M5,26.1h10.1c0.8,0,1.4,0.6,1.4,1.4v0c0,0.8-0.6,1.4-1.4,1.4H5c-0.8,0-1.4-0.6-1.4-1.4v0
	C3.6,26.8,4.2,26.1,5,26.1z"/>
<path class="st0" d="M2.6,0.2H7c1.1,0,2.1,0.9,2.1,2.1v4.4c0,1.1-0.9,2.1-2.1,2.1H2.6c-1.1,0-2.1-0.9-2.1-2.1V2.3
	C0.5,1.1,1.5,0.2,2.6,0.2z"/>
<path class="st0" d="M2.6,10.8H7c1.1,0,2.1,0.9,2.1,2.1v4.4c0,1.1-0.9,2.1-2.1,2.1H2.6c-1.1,0-2.1-0.9-2.1-2.1v-4.4
	C0.5,11.7,1.5,10.8,2.6,10.8z"/>
<path class="st0" d="M15.4,10.8L15.4,10.8c2.4,0,4.3,1.9,4.3,4.3v0c0,2.4-1.9,4.3-4.3,4.3h0c-2.4,0-4.3-1.9-4.3-4.3v0
	C11.1,12.7,13,10.8,15.4,10.8z"/>
<path class="st0" d="M13.2,0.2h4.4c1.1,0,2.1,0.9,2.1,2.1v4.4c0,1.1-0.9,2.1-2.1,2.1h-4.4c-1.1,0-2.1-0.9-2.1-2.1V2.3
	C11.1,1.1,12.1,0.2,13.2,0.2z"/>
</svg>
