<svg width="27" height="29" viewBox="0 0 27 29" fill="none" xmlns="http://www.w3.org/2000/svg">
<path d="M2.94287 13.0886C2.94287 12.1704 3.36331 11.3028 4.08394 10.7339L11.5318 4.85405C12.6217 3.99358 14.1597 3.99358 15.2496 4.85405L22.6974 10.7339C23.4181 11.3028 23.8385 12.1704 23.8385 13.0886V22.3819C23.8385 24.0387 22.4954 25.3819 20.8385 25.3819H19.69C18.0331 25.3819 16.69 24.0387 16.69 22.3819V21.7833C16.69 20.1264 15.3469 18.7833 13.69 18.7833H13.0914C11.4345 18.7833 10.0914 20.1264 10.0914 21.7833V22.3819C10.0914 24.0387 8.74823 25.3819 7.09138 25.3819H5.94287C4.28601 25.3819 2.94287 24.0387 2.94287 22.3819L2.94287 13.0886Z" stroke="#2F2F2F" stroke-width="1.5" stroke-linecap="round" stroke-linejoin="round"/>
</svg>
