<svg width="24" height="24" viewBox="0 0 24 24" fill="none" xmlns="http://www.w3.org/2000/svg">
<path d="M4 12.0226C4 10.9821 4.47649 9.99882 5.29321 9.35405L9.96821 5.66326C11.2035 4.68806 12.9465 4.68806 14.1818 5.66326L18.8568 9.35404C19.6735 9.99882 20.15 10.9821 20.15 12.0226V17.6C20.15 19.4778 18.6278 21 16.75 21H15.475C15.0056 21 14.625 20.6194 14.625 20.15V17.6C14.625 16.6611 13.8639 15.9 12.925 15.9H11.225C10.2861 15.9 9.525 16.6611 9.525 17.6V20.15C9.525 20.6194 9.14444 21 8.675 21H7.4C5.52223 21 4 19.4778 4 17.6L4 12.0226Z" fill="#340C0C" stroke="#340C0C" stroke-width="1.5"/>
</svg>
