<?xml version="1.0" encoding="utf-8"?>
<!-- Generator: Adobe Illustrator 23.0.5, SVG Export Plug-In . SVG Version: 6.00 Build 0)  -->
<svg version="1.1" id="Layer_1" xmlns="http://www.w3.org/2000/svg" xmlns:xlink="http://www.w3.org/1999/xlink" x="0px" y="0px"
	 viewBox="0 0 21 33" style="enable-background:new 0 0 21 33;" xml:space="preserve">
<style type="text/css">
	.st0{fill:#0DB04B;}
</style>
<path class="st0" d="M0,10.7C0,9.3,0.6,8,1.7,7.2l6-4.8c1.6-1.3,3.9-1.3,5.5,0l6,4.8c1.1,0.8,1.7,2.1,1.7,3.5v7.2
	c0,2.4-2,4.4-4.4,4.4h-1.6c-0.6,0-1.1-0.5-1.1-1.1v-3.3c0-1.2-1-2.2-2.2-2.2H9.3c-1.2,0-2.2,1-2.2,2.2v3.3c0,0.6-0.5,1.1-1.1,1.1
	H4.4c-2.4,0-4.4-2-4.4-4.4V10.7z"/>
<path class="st0" d="M5.4,30h10.1c0.8,0,1.4,0.6,1.4,1.4l0,0c0,0.8-0.6,1.4-1.4,1.4H5.4c-0.8,0-1.4-0.6-1.4-1.4l0,0
	C4,30.7,4.6,30,5.4,30z"/>
</svg>
